<?xml version="1.0" standalone="no"?><!DOCTYPE svg PUBLIC "-//W3C//DTD SVG 1.1//EN" "http://www.w3.org/Graphics/SVG/1.1/DTD/svg11.dtd"><svg t="1586784313432" class="icon" viewBox="0 0 1024 1024" version="1.1" xmlns="http://www.w3.org/2000/svg" p-id="9093" xmlns:xlink="http://www.w3.org/1999/xlink" width="200" height="200"><defs><style type="text/css"></style></defs><path d="M404.2 448.6c13-9.4 19.2-25 19.2-46.6 0-12-2-21.8-6.2-29.4-4.4-7.6-10-13.6-17.4-17.8-7.2-4.4-15.4-7.4-24.8-9-9.2-1.8-19-2.6-29-2.6h-105.4v119.6h114c20 0.2 36.6-4.6 49.6-14.2zM422 556.6c-14.8-11.2-34.4-16.8-58.8-16.8h-122.6v141h120.2c11.2 0 21.6-1 31.6-3.2s19-5.6 26.6-10.8c7.6-5 13.8-11.8 18.4-20.4s6.8-19.8 6.8-33.2c0-26.4-7.4-45.2-22.2-56.6z" fill="" p-id="9094"></path><path d="M928 0H96C43.2 0 0 43.2 0 96v832c0 52.8 43.2 96 96 96h832c52.8 0 96-43.2 96-96V96c0-52.8-43.2-96-96-96zM671.2 269.4h207.4V320H671.2v-50.6z m-129.6 417c-10 19-23.6 34.4-40.4 46.4-17 12-36.4 20.8-58.2 26.6-21.6 5.8-44 8.6-66.8 8.6H128V256.2h241.2c24.4 0 46.6 2.2 66.8 6.4 20 4.2 37.2 11.4 51.6 21.2 14.2 9.8 25.4 22.8 33.4 39 7.8 16 11.8 36.2 11.8 60 0 25.8-5.8 47.2-17.6 64.4s-29 31.2-52.2 42.2c31.6 9 54.8 25 70.2 47.6 15.6 22.8 23.2 50.2 23.2 82.2 0.2 26.2-4.8 48.6-14.8 67.2z m417.8-79.2H692c0 29.2 10 57 25.2 72 15.2 14.8 37.2 22.4 65.8 22.4 20.6 0 38.2-5.2 53.2-15.6 14.8-10.4 23.8-21.4 27.2-32.8h89.6c-14.4 44.6-36.2 76.4-66 95.6-29.4 19.2-65.4 28.8-107.2 28.8-29.2 0-55.4-4.8-79-14-23.6-9.4-43.2-22.6-59.8-39.8-16.2-17.2-28.6-37.8-37.6-61.8-8.8-23.8-13.4-50.4-13.4-79 0-27.8 4.6-53.6 13.6-77.6 9.2-24 22-44.8 38.8-62 16.8-17.4 36.8-31.2 60-41.4 23.2-10 48.8-15 77.2-15 31.4 0 58.8 6 82.4 18.4 23.4 12.2 42.6 28.6 57.8 49.2s25.8 44 32.6 70.4c6.6 26 8.8 53.4 7 82.2z" fill="" p-id="9095"></path><path d="M776.6 463.8c-16.2 0-29.8 2.8-40.4 8.4s-19.2 12.4-25.8 20.4c-6.6 8.2-11 16.8-13.6 26.2-2.6 9-4.2 17.2-4.6 24.4h165.6c-2.4-26-11.4-45.2-23.4-58.6-12.4-13.6-32.8-20.8-57.8-20.8z" fill="" p-id="9096"></path></svg>