<?xml version="1.0" encoding="UTF-8"?>
<svg width="63px" height="63px" viewBox="0 0 63 63" version="1.1" xmlns="http://www.w3.org/2000/svg" xmlns:xlink="http://www.w3.org/1999/xlink">
    <!-- Generator: Sketch 52.5 (67469) - http://www.bohemiancoding.com/sketch -->
    <title>Slice</title>
    <desc>Created with Sketch.</desc>
    <g id="Page-1" stroke="none" stroke-width="1" fill="none" fill-rule="evenodd">
        <g id="camera" transform="translate(0.000000, 4.000000)" fill="#8A8A8A" fill-rule="nonzero">
            <path d="M54.6002605,8.46233488 C56.9185431,8.46233488 58.89858,9.28838348 60.5392669,10.9404807 C62.1799538,12.5937758 63,14.5877069 63,16.9234718 L63,46.5387775 C63,48.874628 62.1799538,50.8685591 60.5392669,52.5206563 C58.89858,54.1739514 56.9185431,55 54.6002605,55 L8.40024917,55 C6.08086233,55 4.1013351,54.1739514 2.4607331,52.5206563 C0.820046166,50.8685591 0,48.874628 0,46.5387775 L0,16.9234718 C0,14.5877069 0.820046166,12.5936903 2.4607331,10.9404807 C4.10142004,9.28838348 6.08086233,8.46233488 8.40024917,8.46233488 L15.75,8.46233488 L17.4236451,3.96689863 C17.8388497,2.88766193 18.5992654,1.95662455 19.703703,1.17370092 C20.8081406,0.391975208 21.9402698,0 23.1002605,0 L39.9002492,0 C41.0590507,0 42.1912648,0.392060773 43.296297,1.17370092 C44.4007346,1.95662455 45.1610653,2.88766193 45.5769495,3.96689863 L47.2500849,8.46233488 L54.6002605,8.46233488 Z M21.1149571,42.1926529 C23.9908948,45.0896414 27.4529439,46.5387775 31.4999151,46.5387775 C35.5468862,46.5387775 39.0083407,45.089727 41.884873,42.1926529 C44.7614054,39.2944664 46.1999264,35.8082743 46.1999264,31.7304829 C46.1999264,27.6550873 44.7614054,24.1676973 41.884873,21.2695109 C39.0083407,18.3725223 35.5468862,16.9233863 31.4999151,16.9233863 C27.4529439,16.9233863 23.9908948,18.3724367 21.1149571,21.2695109 C18.2378301,24.1676973 16.7999037,27.6550873 16.7999037,31.7304829 C16.7999037,35.8082743 18.2378301,39.2944664 21.1149571,42.1926529 Z M24.8225783,25.0042705 C26.6711224,23.1433081 28.8967314,22.2122707 31.4999151,22.2122707 C34.1030987,22.2122707 36.3287077,23.1433081 38.1772518,25.0042705 C40.0257959,26.8675432 40.9501529,29.1088439 40.9501529,31.7304829 C40.9501529,34.3533199 40.0258809,36.5958185 38.1772518,38.4566953 C36.3287077,40.319968 34.1030987,41.249893 31.4999151,41.249893 C28.8967314,41.249893 26.6711224,40.319968 24.8225783,38.4566953 C22.9740342,36.5957329 22.0496772,34.3533199 22.0496772,31.7304829 C22.0496772,29.1089295 22.9739493,26.8675432 24.8225783,25.0042705 Z" id="Shape"></path>
        </g>
    </g>
</svg>