<?xml version="1.0" standalone="no"?><!DOCTYPE svg PUBLIC "-//W3C//DTD SVG 1.1//EN" "http://www.w3.org/Graphics/SVG/1.1/DTD/svg11.dtd"><svg t="1587006694583" class="icon" viewBox="0 0 1024 1024" version="1.1" xmlns="http://www.w3.org/2000/svg" p-id="2429" xmlns:xlink="http://www.w3.org/1999/xlink" width="200" height="200"><defs><style type="text/css"></style></defs><path d="M521.364362 387.393812c-95.80273 0-173.723256 77.915661-173.723256 173.718391 0 95.803946 77.920526 173.723256 173.723256 173.723256 95.803946 0 173.724472-77.91931 173.724472-173.723256C695.088834 465.309473 617.145198 387.393812 521.364362 387.393812L521.364362 387.393812zM890.558513 237.707292 728.094647 237.707292l-64.046068-82.253026c-3.558926-4.557517-8.965428-7.198128-14.742905-7.198128L384.087863 148.256138c-5.929516 0-11.535493 2.812111-15.046982 7.620188l-60.254827 81.830966-175.343382 0c-37.862543 0-68.626695 30.764152-68.626695 68.602368l0 503.358111c0 37.838216 30.764152 68.602368 68.626695 68.602368l757.115842 0c37.862543 0 68.625478-30.764152 68.625478-68.602368l0-503.358111C959.183992 268.494554 928.421056 237.707292 890.558513 237.707292L890.558513 237.707292zM521.364362 772.176204c-116.404604 0-211.085895-94.682507-211.085895-211.087111s94.681291-211.087111 211.085895-211.087111c116.40582 0 211.087111 94.682507 211.087111 211.087111S637.770182 772.176204 521.364362 772.176204L521.364362 772.176204zM810.77095 396.359239c-15.094419 0-27.3524-12.253116-27.3524-27.3524 0-15.094419 12.257981-27.348751 27.3524-27.348751 15.094419 0 27.3524 12.254333 27.3524 27.348751C838.123349 384.106123 825.865368 396.359239 810.77095 396.359239L810.77095 396.359239zM810.77095 396.359239" p-id="2430" fill="#2c2c2c"></path></svg>