<?xml version="1.0" standalone="no"?><!DOCTYPE svg PUBLIC "-//W3C//DTD SVG 1.1//EN" "http://www.w3.org/Graphics/SVG/1.1/DTD/svg11.dtd"><svg t="1567416124772" class="icon" viewBox="0 0 1024 1024" version="1.1" xmlns="http://www.w3.org/2000/svg" p-id="3876" xmlns:xlink="http://www.w3.org/1999/xlink" width="128" height="128"><defs><style type="text/css"></style></defs><path d="M896 256l0 512c0 35.328-28.672 64-64 64l-672 0c0 35.328 28.672 64 64 64l672 0c35.328 0 64-28.672 64-64l0-512c0-35.328-28.672-64-64-64zM864 736l0-512c0-35.328-28.672-64-64-64l-672 0c-35.328 0-64 28.672-64 64l0 512c0 35.328 28.672 64 64 64l672 0c35.328 0 64-28.672 64-64zM128 224l672 0 0 512-672 0 0-512zM500.064 553.952l-95.616-101.792-95.648 163.328-71.744-74.976-77.728 164.128 609.76 0-137.504-359.84-131.52 209.152zM256 448c35.328 0 64-28.672 64-64s-28.672-64-64-64-64 28.672-64 64 28.672 64 64 64z" p-id="3877" fill="#000000"></path></svg>