<?xml version="1.0" standalone="no"?><!DOCTYPE svg PUBLIC "-//W3C//DTD SVG 1.1//EN" "http://www.w3.org/Graphics/SVG/1.1/DTD/svg11.dtd"><svg t="1567419592397" class="icon" viewBox="0 0 1024 1024" version="1.1" xmlns="http://www.w3.org/2000/svg" p-id="4475" xmlns:xlink="http://www.w3.org/1999/xlink" width="128" height="128"><defs><style type="text/css"></style></defs><path d="M354.488287 420.113055l315.023421 0 0 105.01599-315.023421 0 0-105.01599Z" p-id="4476"></path><path d="M380.738193 603.886945 459.496094 735.152841 564.495719 735.152841 643.261802 603.886945Z" p-id="4477"></path><path d="M967.662528 56.329287C930.12058 18.779157 884.895134 0 832.010737 0L192.005623 0c-52.884396 0-98.109842 18.779157-135.668156 56.329287C18.787337 93.887601 0.00818 139.113047 0.00818 191.997443l0 639.996932c0 52.884396 18.779157 98.109842 56.329287 135.668156 37.558313 37.558313 82.783759 56.33747 135.668156 56.33747l639.996932 0c52.884396 0 98.109842-18.779157 135.65179-56.33747 37.558313-37.558313 56.33747-82.783759 56.33747-135.668156L1023.991815 191.997443C1023.991815 139.113047 1005.212658 93.879418 967.662528 56.329287zM827.035693 813.910742l-630.063208 0 0-78.757901 183.765708 0-65.690226-109.483711 16.414374-21.782185-55.740137 0L275.722204 341.355154l472.539223 0 0 262.531792-62.286249 0 22.919572 22.674093-65.632948 108.591803 183.773891 0L827.035693 813.910742zM827.035693 288.855341l-630.063208 0 0-78.757901 630.063208 0L827.035693 288.855341z" p-id="4478"></path></svg>