<?xml version="1.0" standalone="no"?><!DOCTYPE svg PUBLIC "-//W3C//DTD SVG 1.1//EN" "http://www.w3.org/Graphics/SVG/1.1/DTD/svg11.dtd"><svg t="1583305740103" class="icon" viewBox="0 0 1024 1024" version="1.1" xmlns="http://www.w3.org/2000/svg" p-id="3545" xmlns:xlink="http://www.w3.org/1999/xlink" width="48" height="48"><defs><style type="text/css"></style></defs><path d="M888.703 847.158l-155.33-155.331c50.041-59.65 80.19-136.551 80.19-220.508 0-189.613-153.703-343.318-343.315-343.318-189.617 0-343.32 153.704-343.32 343.318s153.704 343.319 343.32 343.319c85.053 0 162.867-30.942 222.838-82.164l155.141 155.142c11.175 11.176 29.3 11.176 40.475 0 11.157-11.176 11.157-29.281 0.001-40.458zM470.25 757.416c-158.007 0-286.1-128.09-286.1-286.098 0-158.006 128.093-286.099 286.1-286.099s286.08 128.094 286.08 286.1c0 158.007-128.075 286.097-286.08 286.097z" fill="#2c2c2c" p-id="3546"></path></svg>