<?xml version="1.0" standalone="no"?><!DOCTYPE svg PUBLIC "-//W3C//DTD SVG 1.1//EN" "http://www.w3.org/Graphics/SVG/1.1/DTD/svg11.dtd"><svg t="1567419409281" class="icon" viewBox="0 0 1024 1024" version="1.1" xmlns="http://www.w3.org/2000/svg" p-id="8970" xmlns:xlink="http://www.w3.org/1999/xlink" width="128" height="128"><defs><style type="text/css"></style></defs><path d="M512 0C229.257143 0 0 229.257143 0 512s229.257143 512 512 512 512-229.257143 512-512S794.742857 0 512 0z m-50.742857 768C330.4 768 196.571429 704.457143 196.571429 599.885714c0-54.628571 34.514286-117.828571 94.057142-177.485714 79.428571-79.542857 172.114286-115.885714 206.971429-80.914286 15.428571 15.428571 16.914286 42.057143 6.971429 73.828572-5.142857 16 14.971429 7.2 14.971428 7.2 64.228571-26.971429 120.228571-28.571429 140.685714 0.8 10.971429 15.657143 9.828571 37.485714-0.228571 62.971428-4.685714 11.657143 1.485714 13.485714 10.285714 16.114286 36.228571 11.2 76.457143 38.4 76.457143 86.285714 0.228571 79.428571-113.942857 179.314286-285.485714 179.314286z m236.914286-332.342857a39.885714 39.885714 0 0 0-8.228572-38.971429 39.634286 39.634286 0 0 0-37.828571-12.228571 20.845714 20.845714 0 0 1-8.685715-40.8c27.542857-5.828571 57.257143 2.628571 77.371429 25.028571 20.228571 22.4 25.6 52.914286 17.028571 79.771429a20.72 20.72 0 0 1-26.171428 13.371428 20.777143 20.777143 0 0 1-13.485714-26.171428z m121.142857 39.2s0 0.114286 0 0a24.114286 24.114286 0 0 1-30.4 15.657143 24.217143 24.217143 0 0 1-15.542857-30.514286c12.571429-39.085714 4.571429-83.657143-24.8-116.342857a118.902857 118.902857 0 0 0-113.028572-36.685714 24.16 24.16 0 0 1-28.685714-18.628572 24.08 24.08 0 0 1 18.514286-28.685714c56.457143-12 117.485714 5.485714 158.971428 51.542857 41.485714 45.942857 52.685714 108.685714 34.971429 163.657143z m-382.285715 6.971428c-104.457143 10.285714-183.657143 74.4-176.8 143.085715 6.742857 68.685714 96.914286 116 201.371429 105.714285 104.457143-10.4 183.657143-74.4 176.8-143.2-6.742857-68.685714-96.914286-116-201.371429-105.6z m91.657143 161.942858c-21.371429 48.342857-82.628571 74.057143-134.628571 57.257142-50.171429-16.228571-71.428571-65.942857-49.485714-110.628571 21.6-43.885714 77.714286-68.685714 127.428571-55.771429 51.428571 13.371429 77.714286 61.942857 56.685714 109.142858z m-106.285714-36.8c-16.228571-6.742857-37.028571 0.228571-47.085714 15.885714-10.057143 15.771429-5.371429 34.514286 10.628571 41.828571 16.342857 7.428571 37.942857 0.342857 48-15.771428 10.057143-16.342857 4.8-34.971429-11.542857-41.942857z m39.885714-16.571429c-6.171429-2.514286-13.942857 0.571429-17.6 6.628571-3.542857 6.171429-1.6 13.142857 4.685715 15.771429 6.285714 2.628571 14.4-0.342857 18.057142-6.628571 3.428571-6.4 1.142857-13.485714-5.142857-15.771429z" p-id="8971" fill="#000000"></path></svg>