<?xml version="1.0" standalone="no"?><!DOCTYPE svg PUBLIC "-//W3C//DTD SVG 1.1//EN" "http://www.w3.org/Graphics/SVG/1.1/DTD/svg11.dtd"><svg t="1567318765949" class="icon" viewBox="0 0 1024 1024" version="1.1" xmlns="http://www.w3.org/2000/svg" p-id="2102" xmlns:xlink="http://www.w3.org/1999/xlink" width="128" height="128"><defs><style type="text/css"></style></defs><path d="M512.173 795c171.39 0 318.422-118.888 356.196-283.157C830.477 347.727 683.517 229 512.245 229c-171.39 0-318.422 118.888-356.197 283.157C193.941 676.273 340.9 795 512.173 795zM75.93 504.096C118.297 298.658 299.91 149 512.245 149c212.19 0 393.717 149.458 436.234 354.712a40 40 0 0 1 0.007 16.192C906.121 725.342 724.507 875 512.173 875c-212.191 0-393.718-149.458-436.235-354.712a40 40 0 0 1-0.007-16.192zM512 704c-106.039 0-192-85.961-192-192s85.961-192 192-192 192 85.961 192 192-85.961 192-192 192z m0-80c61.856 0 112-50.144 112-112s-50.144-112-112-112-112 50.144-112 112 50.144 112 112 112z" p-id="2103"></path></svg>