<?xml version="1.0" standalone="no"?><!DOCTYPE svg PUBLIC "-//W3C//DTD SVG 1.1//EN" "http://www.w3.org/Graphics/SVG/1.1/DTD/svg11.dtd"><svg t="1567419500495" class="icon" viewBox="0 0 1024 1024" version="1.1" xmlns="http://www.w3.org/2000/svg" p-id="9402" xmlns:xlink="http://www.w3.org/1999/xlink" width="128" height="128"><defs><style type="text/css"></style></defs><path d="M715.542857 358.171429c6.742857 0 13.485714 0.228571 20.114286 0.571428-27.885714-147.085714-180.914286-259.542857-365.6-259.542857C165.714286 99.2 0 237.028571 0 407.085714c0 92.685714 49.828571 176.228571 127.885714 232.685715a24.571429 24.571429 0 0 1 10.4 20.114285c0 2.742857-0.571429 5.257143-1.257143 7.885715-6.285714 23.2-16.228571 60.342857-16.685714 62.057142-0.8 2.971429-1.942857 5.942857-1.942857 9.028572 0 6.742857 5.485714 12.342857 12.342857 12.342857 2.628571 0 4.8-1.028571 7.085714-2.285714l81.028572-46.742857c6.057143-3.542857 12.571429-5.714286 19.657143-5.714286 3.657143 0 7.314286 0.571429 10.857143 1.6 37.828571 10.857143 78.628571 16.914286 120.8 16.914286 6.857143 0 13.6-0.114286 20.342857-0.457143-8.114286-24-12.457143-49.257143-12.457143-75.428572 0-155.2 151.085714-280.914286 337.485714-280.914285z m-222.057143-98.857143c27.2 0 49.371429 22.057143 49.371429 49.257143s-22.057143 49.257143-49.371429 49.257142c-27.2 0-49.371429-22.057143-49.371428-49.257142s22.171429-49.257143 49.371428-49.257143z m-246.742857 98.514285c-27.2 0-49.371429-22.057143-49.371428-49.257142s22.057143-49.257143 49.371428-49.257143 49.371429 22.057143 49.371429 49.257143-22.171429 49.257143-49.371429 49.257142z m670.628572 474.971429c65.028571-47.085714 106.514286-116.571429 106.514285-193.942857 0-141.714286-138.057143-256.571429-308.457143-256.571429-170.285714 0-308.457143 114.857143-308.457142 256.571429S545.028571 895.428571 715.428571 895.428571c35.2 0 69.257143-5.028571 100.685715-14.057142 2.971429-0.914286 5.942857-1.371429 9.028571-1.371429 5.942857 0 11.314286 1.828571 16.342857 4.685714l67.542857 38.857143c1.942857 1.142857 3.771429 1.942857 5.942858 1.942857a10.285714 10.285714 0 0 0 7.314285-2.971428 10.285714 10.285714 0 0 0 2.971429-7.314286c0-2.514286-1.028571-5.028571-1.6-7.542857-0.342857-1.371429-8.685714-32.342857-13.942857-51.771429-0.571429-2.171429-1.028571-4.342857-1.028572-6.514285 0.114286-6.742857 3.542857-12.8 8.685715-16.571429zM612.8 597.942857c-22.742857 0-41.142857-18.4-41.142857-41.028571 0-22.628571 18.4-41.028571 41.142857-41.028572s41.142857 18.4 41.142857 41.028572c0 22.628571-18.514286 41.028571-41.142857 41.028571z m205.6 0c-22.742857 0-41.142857-18.4-41.142857-41.028571 0-22.628571 18.4-41.028571 41.142857-41.028572s41.142857 18.4 41.142857 41.028572a41.234286 41.234286 0 0 1-41.142857 41.028571z" p-id="9403"></path></svg>