<?xml version="1.0" encoding="utf-8"?>
<!-- Generator: Adobe Illustrator 23.1.1, SVG Export Plug-In . SVG Version: 6.00 Build 0)  -->
<svg version="1.1" id="Cross" xmlns="http://www.w3.org/2000/svg" xmlns:xlink="http://www.w3.org/1999/xlink" x="0px" y="0px"
	 viewBox="0 0 20 20" style="enable-background:new 0 0 20 20;" xml:space="preserve">
<style type="text/css">
	.st0{fill:#FFFFFF;}
</style>
<path class="st0" d="M14.3,14.8c-0.5,0.5-1.2,0.5-1.7,0l-2.7-3l-2.7,3c-0.5,0.5-1.2,0.5-1.7,0c-0.5-0.5-0.5-1.2,0-1.7L8.4,10
	L5.7,6.8c-0.5-0.5-0.5-1.2,0-1.7s1.2-0.5,1.7,0l2.7,3l2.7-3c0.5-0.5,1.2-0.5,1.7,0s0.5,1.2,0,1.7L11.6,10l2.8,3.1
	C14.8,13.6,14.8,14.4,14.3,14.8z"/>
</svg>
